<?xml version="1.0" encoding="UTF-8" standalone="no"?>
<!-- Created with Inkscape (http://www.inkscape.org/) -->

<svg
   xmlns:dc="http://purl.org/dc/elements/1.1/"
   xmlns:cc="http://creativecommons.org/ns#"
   xmlns:rdf="http://www.w3.org/1999/02/22-rdf-syntax-ns#"
   xmlns:svg="http://www.w3.org/2000/svg"
   xmlns="http://www.w3.org/2000/svg"
   xmlns:sodipodi="http://sodipodi.sourceforge.net/DTD/sodipodi-0.dtd"
   xmlns:inkscape="http://www.inkscape.org/namespaces/inkscape"
   width="1024"
   height="768"
   id="svg4335"
   version="1.1"
   inkscape:version="0.91 r13725"
   viewBox="0 0 1024 768"
   sodipodi:docname="wirewframe2np.svg">
  <defs
     id="defs4337" />
  <sodipodi:namedview
     id="base"
     pagecolor="#ffffff"
     bordercolor="#666666"
     borderopacity="1.0"
     inkscape:pageopacity="0.0"
     inkscape:pageshadow="2"
     inkscape:zoom="0.5"
     inkscape:cx="220"
     inkscape:cy="302"
     inkscape:current-layer="layer1"
     inkscape:document-units="px"
     showgrid="false"
     inkscape:snap-global="true"
     inkscape:window-width="1280"
     inkscape:window-height="691"
     inkscape:window-x="0"
     inkscape:window-y="0"
     inkscape:window-maximized="1" />
  <metadata
     id="metadata4340">
    <rdf:RDF>
      <cc:Work
         rdf:about="">
        <dc:format>image/svg+xml</dc:format>
        <dc:type
           rdf:resource="http://purl.org/dc/dcmitype/StillImage" />
        <dc:title></dc:title>
      </cc:Work>
    </rdf:RDF>
  </metadata>
  <g
     id="layer1"
     inkscape:label="Layer 1"
     inkscape:groupmode="layer">
    <rect
       style="fill:#000000;fill-opacity:0.03529412"
       id="rect4345"
       width="1030"
       height="350"
       x="4"
       y="4" />
    <rect
       style="fill:#000000;fill-opacity:0.03529412"
       id="rect4347"
       width="166"
       height="124"
       x="18"
       y="466" />
    <rect
       style="fill:#000000;fill-opacity:0.03529412"
       id="rect4349"
       width="166"
       height="124"
       x="216"
       y="462.00012" />
    <rect
       style="fill:#000000;fill-opacity:0.03529412"
       id="rect4351"
       width="166"
       height="124"
       x="416"
       y="461.99985" />
    <rect
       style="fill:#000000;fill-opacity:0.03529412"
       id="rect4355"
       width="166"
       height="124"
       x="612"
       y="460" />
    <rect
       style="fill:#000000;fill-opacity:0.03529412"
       id="rect4357"
       width="166"
       height="126"
       x="828"
       y="453.99985" />
    <text
       xml:space="preserve"
       style="font-style:normal;font-weight:normal;font-size:40px;line-height:125%;font-family:sans-serif;letter-spacing:0px;word-spacing:0px;fill:#000000;fill-opacity:1;stroke:none;stroke-width:1px;stroke-linecap:butt;stroke-linejoin:miter;stroke-opacity:1"
       x="104"
       y="534"
       id="text4359"
       sodipodi:linespacing="125%"><tspan
         sodipodi:role="line"
         id="tspan4361"
         x="104"
         y="534">trip</tspan></text>
    <text
       xml:space="preserve"
       style="font-style:normal;font-weight:normal;font-size:40px;line-height:125%;font-family:sans-serif;letter-spacing:0px;word-spacing:0px;fill:#000000;fill-opacity:1;stroke:none;stroke-width:1px;stroke-linecap:butt;stroke-linejoin:miter;stroke-opacity:1"
       x="262"
       y="516"
       id="text4363"
       sodipodi:linespacing="125%"><tspan
         sodipodi:role="line"
         id="tspan4365"
         x="262"
         y="516">trip</tspan></text>
    <text
       xml:space="preserve"
       style="font-style:normal;font-weight:normal;font-size:40px;line-height:125%;font-family:sans-serif;letter-spacing:0px;word-spacing:0px;fill:#000000;fill-opacity:1;stroke:none;stroke-width:1px;stroke-linecap:butt;stroke-linejoin:miter;stroke-opacity:1"
       x="468"
       y="536"
       id="text4367"
       sodipodi:linespacing="125%"><tspan
         sodipodi:role="line"
         id="tspan4369"
         x="468"
         y="536">trip</tspan></text>
    <text
       xml:space="preserve"
       style="font-style:normal;font-weight:normal;font-size:40px;line-height:125%;font-family:sans-serif;letter-spacing:0px;word-spacing:0px;fill:#000000;fill-opacity:1;stroke:none;stroke-width:1px;stroke-linecap:butt;stroke-linejoin:miter;stroke-opacity:1"
       x="646"
       y="524"
       id="text4371"
       sodipodi:linespacing="125%"><tspan
         sodipodi:role="line"
         id="tspan4373"
         x="646"
         y="524">trip</tspan></text>
    <text
       xml:space="preserve"
       style="font-style:normal;font-weight:normal;font-size:40px;line-height:125%;font-family:sans-serif;letter-spacing:0px;word-spacing:0px;fill:#000000;fill-opacity:1;stroke:none;stroke-width:1px;stroke-linecap:butt;stroke-linejoin:miter;stroke-opacity:1"
       x="860"
       y="510"
       id="text4375"
       sodipodi:linespacing="125%"><tspan
         sodipodi:role="line"
         id="tspan4377"
         x="860"
         y="510">trip</tspan></text>
    <rect
       style="fill:#000000;fill-opacity:0.03529412"
       id="rect4379"
       width="450"
       height="144"
       x="24"
       y="592" />
    <text
       xml:space="preserve"
       style="font-style:normal;font-weight:normal;font-size:40px;line-height:125%;font-family:sans-serif;letter-spacing:0px;word-spacing:0px;fill:#000000;fill-opacity:1;stroke:none;stroke-width:1px;stroke-linecap:butt;stroke-linejoin:miter;stroke-opacity:1"
       x="96"
       y="686"
       id="text4381"
       sodipodi:linespacing="125%"><tspan
         sodipodi:role="line"
         id="tspan4383"
         x="96"
         y="686">News</tspan></text>
    <rect
       style="fill:#000000;fill-opacity:0.03529412"
       id="rect4385"
       width="464"
       height="138"
       x="520"
       y="586" />
    <path
       style="fill:none;fill-rule:evenodd;stroke:#000000;stroke-width:15.5;stroke-linecap:butt;stroke-linejoin:miter;stroke-opacity:1;stroke-miterlimit:4;stroke-dasharray:none"
       d="m 26,220 c -8.064129,16.12826 1.035534,2.64298 -10,10 -0.5547,0.3698 0,1.33333 0,2 0,2 0.632456,4.10263 0,6 -0.298142,0.89443 -1.578363,1.15673 -2,2 -0.596285,1.19257 0.596285,2.80743 0,4 -0.421637,0.84327 -1.578363,1.15673 -2,2 -0.298142,0.59628 0.247594,1.38102 0,2 -2.1535163,5.38379 -5.385076,10.77015 -8,16 -0.6666667,1.33333 -1.5285955,2.58579 -2,4 -0.421637,1.26491 0.942809,3.05719 0,4 -0.4714045,0.4714 -2,0.66667 -2,0 0,-0.66667 1.5285955,-0.4714 2,0 0.4714045,0.4714 -0.2981424,1.40372 0,2 0.421637,0.84327 1.3333333,1.33333 2,2 0.6666667,0.66667 1.578363,1.15673 2,2 0.2981424,0.59628 -0.4714045,1.5286 0,2 0.4714045,0.4714 1.4037152,-0.29814 2,0 0.843274,0.42164 1.3333333,1.33333 2,2 0.666667,0.66667 1.333333,1.33333 2,2 0.666667,0 1.4453,-0.3698 2,0 2.236202,1.4908 5.823132,5.82313 8,8 0.666667,0.66667 1.156726,1.57836 2,2 1.19257,0.59628 3.057191,-0.94281 4,0 0.471405,0.4714 -0.471405,1.5286 0,2 0.471405,0.4714 1.528595,-0.4714 2,0 0.471405,0.4714 -0.298142,1.40372 0,2 0.421637,0.84327 1.578363,1.15673 2,2 0.298142,0.59628 -0.298142,1.40372 0,2 0.421637,0.84327 1.578363,1.15673 2,2 0.298142,0.59628 0,1.33333 0,2 0,0.66667 0,1.33333 0,2"
       id="path4401"
       inkscape:connector-curvature="0" />
    <text
       xml:space="preserve"
       style="font-style:normal;font-weight:normal;font-size:40px;line-height:125%;font-family:sans-serif;letter-spacing:0px;word-spacing:0px;fill:#000000;fill-opacity:1;stroke:none;stroke-width:1px;stroke-linecap:butt;stroke-linejoin:miter;stroke-opacity:1"
       x="376"
       y="234"
       id="text4945"
       sodipodi:linespacing="125%"><tspan
         sodipodi:role="line"
         id="tspan4947"
         x="376"
         y="234">image scroller</tspan></text>
    <path
       style="fill:#000000;fill-opacity:0.03529412;stroke-width:15.5;stroke-miterlimit:4;stroke-dasharray:none"
       id="path4949"
       sodipodi:type="arc"
       sodipodi:cx="764"
       sodipodi:cy="27"
       sodipodi:rx="52"
       sodipodi:ry="7"
       sodipodi:start="0"
       sodipodi:end="1.3765394"
       d="m 816,27 a 52,7 0 0 1 -41.96205,6.86834 L 764,27 Z" />
    <path
       style="fill:none;fill-rule:evenodd;stroke:#000000;stroke-width:9.2;stroke-linecap:butt;stroke-linejoin:miter;stroke-opacity:1;stroke-miterlimit:4;stroke-dasharray:none"
       d="m 938,202 c 2.66667,3.33333 4.585,7.43875 8,10 2.19899,1.64924 5.44786,0.97914 8,2 0.87538,0.35015 1.21554,1.47702 2,2 0.37254,0.24836 7.87184,3.87184 8,4 1.05409,1.05409 0.94591,2.94591 2,4 1.05409,1.05409 2.75965,1.1731 4,2 3.05862,2.03908 1.5712,2.7616 4,6 1.13137,1.50849 2.66667,2.66667 4,4 2.66667,2.66667 5.33333,5.33333 8,8 0.66667,0.66667 1.57836,1.15673 2,2 0.29814,0.59628 0,1.33333 0,2 0,4.50088 -0.29814,3.55279 4,10 1.04595,1.56893 2.66667,2.66667 4,4 0.66667,2 1.05719,4.11438 2,6 0.57137,1.14275 5.9475,4.05254 4,6 -0.3893,0.38928 -9.2697,-0.36515 -10,0 -0.59628,0.29814 0.4714,1.5286 0,2 -0.4714,0.4714 -1.40372,-0.29814 -2,0 -8.32352,4.16176 2.13807,-0.13807 -2,4 -0.4714,0.4714 -1.5286,-0.4714 -2,0 -0.4714,0.4714 0.29814,1.40372 0,2 -0.88634,1.77268 -4.78625,4.17937 -6,6 -0.8269,1.24035 -1.1731,2.75965 -2,4 -0.52298,0.78446 -1.21554,1.47702 -2,2 -1.24035,0.8269 -3.1731,0.75965 -4,2 0,11.33333 1.33333,0.66667 -2,4 -0.48126,0.48126 0.48126,7.51874 0,8 -0.4714,0.4714 -1.5286,-0.4714 -2,0 -0.4714,0.4714 0.4714,1.5286 0,2 -0.4714,0.4714 -1.5286,-0.4714 -2,0 -0.94281,0.94281 0.94281,3.05719 0,4 -0.4714,0.4714 -1.5286,-0.4714 -2,0 -0.4714,0.4714 0.4714,1.5286 0,2 -0.4714,0.4714 -1.5286,-0.4714 -2,0 -2.66667,2.66667 3.33333,2 -2,2"
       id="path4953"
       inkscape:connector-curvature="0" />
    <rect
       style="fill:#000000;fill-opacity:0;stroke-width:9.19999981;stroke-miterlimit:4;stroke-dasharray:none"
       id="rect4959"
       width="50"
       height="40"
       x="718"
       y="706" />
    <rect
       style="fill:#00006f;fill-opacity:0.25098039;stroke-width:9.19999981;stroke-miterlimit:4;stroke-dasharray:none"
       id="rect4961"
       width="994"
       height="76"
       x="16"
       y="368" />
    <text
       xml:space="preserve"
       style="font-style:normal;font-weight:normal;font-size:40px;line-height:125%;font-family:sans-serif;letter-spacing:0px;word-spacing:0px;fill:#000000;fill-opacity:1;stroke:none;stroke-width:1px;stroke-linecap:butt;stroke-linejoin:miter;stroke-opacity:1"
       x="408"
       y="418"
       id="text4963"
       sodipodi:linespacing="125%"><tspan
         sodipodi:role="line"
         id="tspan4965"
         x="408"
         y="418">Nav Bar</tspan></text>
    <rect
       style="fill:#00006f;fill-opacity:0.25098039;stroke-width:9.19999981;stroke-miterlimit:4;stroke-dasharray:none"
       id="rect4967"
       width="244"
       height="44"
       x="740"
       y="22" />
    <text
       xml:space="preserve"
       style="font-style:normal;font-weight:normal;font-size:40px;line-height:125%;font-family:sans-serif;letter-spacing:0px;word-spacing:0px;fill:#000000;fill-opacity:1;stroke:none;stroke-width:1px;stroke-linecap:butt;stroke-linejoin:miter;stroke-opacity:1"
       x="752"
       y="52"
       id="text4969"
       sodipodi:linespacing="125%"><tspan
         sodipodi:role="line"
         id="tspan4971"
         x="752"
         y="52">social Icons</tspan></text>
    <rect
       style="fill:#00006f;fill-opacity:0.25098039;stroke-width:9.19999981;stroke-miterlimit:4;stroke-dasharray:none"
       id="rect4973"
       width="978"
       height="18"
       x="18"
       y="742" />
    <text
       xml:space="preserve"
       style="font-style:normal;font-weight:normal;font-size:40px;line-height:125%;font-family:sans-serif;letter-spacing:0px;word-spacing:0px;fill:#000000;fill-opacity:1;stroke:none;stroke-width:1px;stroke-linecap:butt;stroke-linejoin:miter;stroke-opacity:1"
       x="724"
       y="640"
       id="text4975"
       sodipodi:linespacing="125%"><tspan
         sodipodi:role="line"
         id="tspan4977"
         x="724"
         y="640">testimonal</tspan></text>
  </g>
</svg>
